<?xml version="1.0" encoding="utf-8"?>
<svg version="1.1" xmlns:xlink="http://www.w3.org/1999/xlink" width="168px" height="160px" xmlns="http://www.w3.org/2000/svg">
  <g transform="matrix(1 0 0 1 -276 -142 )">
    <path d="M 31 116  L 46 116  L 46 131  L 31 131  L 31 116  Z M 31 29  L 46 29  L 46 44  L 31 44  L 31 29  Z M 122 29  L 137 29  L 137 44  L 122 44  L 122 29  Z M 16 101  L 16 145  L 61 145  L 61 101  L 16 101  Z M 16 15  L 16 59  L 61 59  L 61 15  L 16 15  Z M 107 15  L 107 59  L 152 59  L 152 15  L 107 15  Z M 0 87  L 77 87  L 77 160  L 0 160  L 0 87  Z M 122 145  L 137 145  L 137 160  L 122 160  L 122 145  Z M 152 145  L 168 145  L 168 160  L 152 160  L 152 145  Z M 152 87  L 168 87  L 168 131  L 122 131  L 122 116  L 107 116  L 107 160  L 91 160  L 91 87  L 137 87  L 137 101  L 152 101  L 152 87  Z M 0 0  L 77 0  L 77 73  L 0 73  L 0 0  Z M 91 0  L 168 0  L 168 73  L 91 73  L 91 0  Z " fill-rule="nonzero" fill="#000000" stroke="none" transform="matrix(1 0 0 1 276 142 )" />
  </g>
</svg>