<?xml version="1.0" encoding="utf-8"?>
<svg version="1.1" xmlns:xlink="http://www.w3.org/1999/xlink" width="32px" height="21px" xmlns="http://www.w3.org/2000/svg">
  <g transform="matrix(1 0 0 1 -447 -253 )">
    <path d="M 18.4791666666667 17.376953125  C 18.6041666666667 17.294921875  18.6666666666667 17.1901041666667  18.6666666666667 17.0625  L 18.6666666666667 14.4375  C 18.6666666666667 14.3098958333333  18.6041666666667 14.205078125  18.4791666666667 14.123046875  C 18.3541666666667 14.041015625  18.1944444444444 14  18 14  L 14 14  C 13.8055555555556 14  13.6458333333333 14.041015625  13.5208333333333 14.123046875  C 13.3958333333333 14.205078125  13.3333333333333 14.3098958333333  13.3333333333333 14.4375  L 13.3333333333333 17.0625  C 13.3333333333333 17.1901041666667  13.3958333333333 17.294921875  13.5208333333333 17.376953125  C 13.6458333333333 17.458984375  13.8055555555556 17.5  14 17.5  L 18 17.5  C 18.1944444444444 17.5  18.3541666666667 17.458984375  18.4791666666667 17.376953125  Z M 23.7395833333333 8.982421875  C 23.9131944444444 8.64518229166667  24 8.27604166666667  24 7.875  C 24 7.07291666666667  23.6145833333333 6.330078125  22.84375 5.646484375  C 22.0729166666667 4.962890625  21.1111111111111 4.43424479166667  19.9583333333333 4.060546875  C 18.8055555555556 3.68684895833333  17.625 3.5  16.4166666666667 3.5  C 13.0416666666667 3.5  10.4652777777778 4.470703125  8.6875 6.412109375  C 8.47916666666667 6.630859375  8.53472222222222 6.822265625  8.85416666666667 6.986328125  L 11.6041666666667 8.353515625  C 11.7013888888889 8.408203125  11.8333333333333 8.435546875  12 8.435546875  C 12.2222222222222 8.435546875  12.3958333333333 8.380859375  12.5208333333333 8.271484375  C 13.2569444444444 7.65169270833333  13.8541666666667 7.232421875  14.3125 7.013671875  C 14.7847222222222 6.794921875  15.3819444444444 6.685546875  16.1041666666667 6.685546875  C 16.7708333333333 6.685546875  17.3645833333333 6.80403645833333  17.8854166666667 7.041015625  C 18.40625 7.27799479166667  18.6666666666667 7.546875  18.6666666666667 7.84765625  C 18.6666666666667 8.19401041666667  18.5277777777778 8.47200520833333  18.25 8.681640625  C 17.9722222222222 8.89127604166667  17.5 9.09635416666667  16.8333333333333 9.296875  C 15.9583333333333 9.55208333333333  15.15625 9.9462890625  14.4270833333333 10.4794921875  C 13.6979166666667 11.0126953125  13.3333333333333 11.5846354166667  13.3333333333333 12.1953125  L 13.3333333333333 12.6875  C 13.3333333333333 12.8151041666667  13.3958333333333 12.919921875  13.5208333333333 13.001953125  C 13.6458333333333 13.083984375  13.8055555555556 13.125  14 13.125  L 18 13.125  C 18.1944444444444 13.125  18.3541666666667 13.083984375  18.4791666666667 13.001953125  C 18.6041666666667 12.919921875  18.6666666666667 12.8151041666667  18.6666666666667 12.6875  C 18.6666666666667 12.5143229166667  18.8159722222222 12.2887369791667  19.1145833333333 12.0107421875  C 19.4131944444444 11.7327473958333  19.7916666666667 11.5071614583333  20.25 11.333984375  C 20.6944444444444 11.169921875  21.0347222222222 11.0400390625  21.2708333333333 10.9443359375  C 21.5069444444444 10.8486328125  21.8263888888889 10.6891276041667  22.2291666666667 10.4658203125  C 22.6319444444444 10.2425130208333  22.9409722222222 10.0237630208333  23.15625 9.8095703125  C 23.3715277777778 9.59537760416666  23.5659722222222 9.31966145833333  23.7395833333333 8.982421875  Z M 29.8541666666667 5.2294921875  C 31.2847222222222 6.83821614583333  32 8.59505208333333  32 10.5  C 32 12.4049479166667  31.2847222222222 14.1617838541667  29.8541666666667 15.7705078125  C 28.4236111111111 17.3792317708333  26.4826388888889 18.6529947916667  24.03125 19.591796875  C 21.5798611111111 20.5305989583333  18.9027777777778 21  16 21  C 13.0972222222222 21  10.4201388888889 20.5305989583333  7.96875 19.591796875  C 5.51736111111111 18.6529947916667  3.57638888888889 17.3792317708333  2.14583333333333 15.7705078125  C 0.715277777777778 14.1617838541667  0 12.4049479166667  0 10.5  C 0 8.59505208333333  0.715277777777778 6.83821614583333  2.14583333333333 5.2294921875  C 3.57638888888889 3.62076822916667  5.51736111111111 2.34700520833333  7.96875 1.408203125  C 10.4201388888889 0.469401041666665  13.0972222222222 0  16 0  C 18.9027777777778 0  21.5798611111111 0.469401041666665  24.03125 1.408203125  C 26.4826388888889 2.34700520833333  28.4236111111111 3.62076822916667  29.8541666666667 5.2294921875  Z " fill-rule="nonzero" fill="#000000" stroke="none" transform="matrix(1 0 0 1 447 253 )" />
  </g>
</svg>