<?xml version="1.0" encoding="utf-8"?>
<svg version="1.1" xmlns:xlink="http://www.w3.org/1999/xlink" width="23px" height="27px" xmlns="http://www.w3.org/2000/svg">
  <g transform="matrix(1 0 0 1 -602 -145 )">
    <path d="M 10 7.71428571428571  L 10 25  L 21.3571428571429 25  L 21.3571428571429 15.4285714285714  L 16.0178571428571 15.4285714285714  C 15.6755952380952 15.4285714285714  15.3846726190476 15.2879464285714  15.1450892857143 15.0066964285714  C 14.905505952381 14.7254464285714  14.7857142857143 14.3839285714286  14.7857142857143 13.9821428571429  L 14.7857142857143 7.71428571428571  L 10 7.71428571428571  Z M 13.0209263392857 3.71400669642857  C 13.1022135416667 3.61858258928571  13.1428571428571 3.50558035714285  13.1428571428571 3.375  L 13.1428571428571 2.41071428571429  C 13.1428571428571 2.28013392857143  13.1022135416667 2.16713169642857  13.0209263392857 2.07170758928571  C 12.9396391369048 1.97628348214285  12.8433779761905 1.92857142857143  12.7321428571429 1.92857142857143  L 3.69642857142857 1.92857142857143  C 3.58519345238095 1.92857142857143  3.48893229166667 1.97628348214285  3.40764508928571 2.07170758928571  C 3.32635788690476 2.16713169642857  3.28571428571429 2.28013392857143  3.28571428571429 2.41071428571429  L 3.28571428571429 3.375  C 3.28571428571429 3.50558035714285  3.32635788690476 3.61858258928571  3.40764508928571 3.71400669642857  C 3.48893229166667 3.80943080357143  3.58519345238095 3.85714285714286  3.69642857142857 3.85714285714286  L 12.7321428571429 3.85714285714286  C 12.8433779761905 3.85714285714286  12.9396391369048 3.80943080357143  13.0209263392857 3.71400669642857  Z M 16.4285714285714 8.99497767857143  L 16.4285714285714 13.5  L 20.2661830357143 13.5  L 16.4285714285714 8.99497767857143  Z M 22.7433035714286 14.1026785714286  C 22.9144345238095 14.5848214285714  23 15.0267857142857  23 15.4285714285714  L 23 25.5535714285714  C 23 25.9553571428571  22.8802083333333 26.296875  22.640625 26.578125  C 22.4010416666667 26.859375  22.110119047619 27  21.7678571428571 27  L 9.44642857142857 27  C 9.10416666666667 27  8.81324404761905 26.859375  8.57366071428572 26.578125  C 8.33407738095238 26.296875  8.21428571428572 25.9553571428571  8.21428571428572 25.5535714285714  L 8.21428571428572 23.1428571428571  L 1.23214285714286 23.1428571428571  C 0.889880952380953 23.1428571428571  0.598958333333333 23.0022321428571  0.359375 22.7209821428571  C 0.119791666666667 22.4397321428571  0 22.0982142857143  0 21.6964285714286  L 0 1.44642857142857  C 0 1.04464285714286  0.119791666666667 0.703124999999999  0.359375 0.421875  C 0.598958333333333 0.140625000000001  0.889880952380953 0  1.23214285714286 0  L 15.1964285714286 0  C 15.5386904761905 0  15.8296130952381 0.140625000000001  16.0691964285714 0.421875  C 16.3087797619048 0.703124999999999  16.4285714285714 1.04464285714286  16.4285714285714 1.44642857142857  L 16.4285714285714 6.38839285714286  C 16.6082589285714 6.51897321428571  16.7622767857143 6.65959821428571  16.890625 6.81026785714286  L 22.1272321428571 12.9575892857143  C 22.3668154761905 13.2388392857143  22.5721726190476 13.6205357142857  22.7433035714286 14.1026785714286  Z " fill-rule="nonzero" fill="#000000" stroke="none" transform="matrix(1 0 0 1 602 145 )" />
  </g>
</svg>