<?xml version="1.0" encoding="utf-8"?>
<svg version="1.1" xmlns:xlink="http://www.w3.org/1999/xlink" width="24px" height="21px" xmlns="http://www.w3.org/2000/svg">
  <g transform="matrix(1 0 0 1 -652 -132 )">
    <path d="M 13.859375 17.376953125  C 13.953125 17.294921875  14 17.1901041666667  14 17.0625  L 14 14.4375  C 14 14.3098958333333  13.953125 14.205078125  13.859375 14.123046875  C 13.765625 14.041015625  13.6458333333333 14  13.5 14  L 10.5 14  C 10.3541666666667 14  10.234375 14.041015625  10.140625 14.123046875  C 10.046875 14.205078125  10 14.3098958333333  10 14.4375  L 10 17.0625  C 10 17.1901041666667  10.046875 17.294921875  10.140625 17.376953125  C 10.234375 17.458984375  10.3541666666667 17.5  10.5 17.5  L 13.5 17.5  C 13.6458333333333 17.5  13.765625 17.458984375  13.859375 17.376953125  Z M 17.8046875 8.982421875  C 17.9348958333333 8.64518229166667  18 8.27604166666667  18 7.875  C 18 7.07291666666667  17.7109375 6.330078125  17.1328125 5.646484375  C 16.5546875 4.962890625  15.8333333333333 4.43424479166667  14.96875 4.060546875  C 14.1041666666667 3.68684895833333  13.21875 3.5  12.3125 3.5  C 9.78125 3.5  7.84895833333333 4.470703125  6.515625 6.412109375  C 6.359375 6.630859375  6.40104166666667 6.822265625  6.640625 6.986328125  L 8.703125 8.353515625  C 8.77604166666667 8.408203125  8.875 8.435546875  9 8.435546875  C 9.16666666666667 8.435546875  9.296875 8.380859375  9.390625 8.271484375  C 9.94270833333333 7.65169270833333  10.390625 7.232421875  10.734375 7.013671875  C 11.0885416666667 6.794921875  11.5364583333333 6.685546875  12.078125 6.685546875  C 12.578125 6.685546875  13.0234375 6.80403645833333  13.4140625 7.041015625  C 13.8046875 7.27799479166667  14 7.546875  14 7.84765625  C 14 8.19401041666667  13.8958333333333 8.47200520833333  13.6875 8.681640625  C 13.4791666666667 8.89127604166667  13.125 9.09635416666667  12.625 9.296875  C 11.96875 9.55208333333333  11.3671875 9.9462890625  10.8203125 10.4794921875  C 10.2734375 11.0126953125  10 11.5846354166667  10 12.1953125  L 10 12.6875  C 10 12.8151041666667  10.046875 12.919921875  10.140625 13.001953125  C 10.234375 13.083984375  10.3541666666667 13.125  10.5 13.125  L 13.5 13.125  C 13.6458333333333 13.125  13.765625 13.083984375  13.859375 13.001953125  C 13.953125 12.919921875  14 12.8151041666667  14 12.6875  C 14 12.5143229166667  14.1119791666667 12.2887369791667  14.3359375 12.0107421875  C 14.5598958333333 11.7327473958333  14.84375 11.5071614583333  15.1875 11.333984375  C 15.5208333333333 11.169921875  15.7760416666667 11.0400390625  15.953125 10.9443359375  C 16.1302083333333 10.8486328125  16.3697916666667 10.6891276041667  16.671875 10.4658203125  C 16.9739583333333 10.2425130208333  17.2057291666667 10.0237630208333  17.3671875 9.8095703125  C 17.5286458333333 9.59537760416666  17.6744791666667 9.31966145833333  17.8046875 8.982421875  Z M 22.390625 5.2294921875  C 23.4635416666667 6.83821614583333  24 8.59505208333333  24 10.5  C 24 12.4049479166667  23.4635416666667 14.1617838541667  22.390625 15.7705078125  C 21.3177083333333 17.3792317708333  19.8619791666667 18.6529947916667  18.0234375 19.591796875  C 16.1848958333333 20.5305989583333  14.1770833333333 21  12 21  C 9.82291666666667 21  7.81510416666667 20.5305989583333  5.9765625 19.591796875  C 4.13802083333333 18.6529947916667  2.68229166666667 17.3792317708333  1.609375 15.7705078125  C 0.536458333333333 14.1617838541667  0 12.4049479166667  0 10.5  C 0 8.59505208333333  0.536458333333333 6.83821614583333  1.609375 5.2294921875  C 2.68229166666667 3.62076822916667  4.13802083333333 2.34700520833333  5.9765625 1.408203125  C 7.81510416666667 0.469401041666665  9.82291666666667 0  12 0  C 14.1770833333333 0  16.1848958333333 0.469401041666665  18.0234375 1.408203125  C 19.8619791666667 2.34700520833333  21.3177083333333 3.62076822916667  22.390625 5.2294921875  Z " fill-rule="nonzero" fill="#000000" stroke="none" transform="matrix(1 0 0 1 652 132 )" />
  </g>
</svg>