<?xml version="1.0" encoding="utf-8"?>
<svg version="1.1" xmlns:xlink="http://www.w3.org/1999/xlink" width="40px" height="50px" xmlns="http://www.w3.org/2000/svg">
  <defs>
    <filter x="758px" y="286px" width="40px" height="50px" filterUnits="userSpaceOnUse" id="filter37">
      <feOffset dx="1" dy="1" in="SourceAlpha" result="shadowOffsetInner" />
      <feGaussianBlur stdDeviation="2.5" in="shadowOffsetInner" result="shadowGaussian" />
      <feComposite in2="shadowGaussian" operator="atop" in="SourceAlpha" result="shadowComposite" />
      <feColorMatrix type="matrix" values="0 0 0 0 0  0 0 0 0 0  0 0 0 0 0  0 0 0 0.698039215686274 0  " in="shadowComposite" />
    </filter>
    <g id="widget38">
      <path d="M 777 329.036928468354  C 771.2 319.40734059591  762.5 313.629587872444  762.5 304  C 762.5 298.985714285714  765.4 290.5  777 290.5  C 788.6 290.5  791.5 298.985714285714  791.5 304  C 791.5 313.629587872444  782.8 319.40734059591  777 329.036928468354  Z " fill-rule="nonzero" fill="#009dd9" stroke="none" />
      <path d="M 777 330  C 771 320  762 314  762 304  C 762 298.8  765 290  777 290  C 789 290  792 298.8  792 304  C 792 314  783 320  777 330  Z M 777 328.073856936707  C 782.6 318.81468119182  791 313.259175744887  791 304  C 791 299.171428571429  788.2 291  777 291  C 765.8 291  763 299.171428571429  763 304  C 763 313.259175744887  771.4 318.81468119182  777 328.073856936707  Z " fill-rule="nonzero" fill="#ffffff" stroke="none" />
    </g>
  </defs>
  <g transform="matrix(1 0 0 1 -758 -286 )">
    <use xlink:href="#widget38" filter="url(#filter37)" />
    <use xlink:href="#widget38" />
  </g>
</svg>